<svg width="48" height="44" viewBox="0 0 48 44" fill="none" xmlns="http://www.w3.org/2000/svg">
<path d="M47.7482 38.4475H47.7482V11.8153V11.8083L47.7483 11.8083C47.8112 9.55508 46.0355 7.67755 43.7822 7.61474L43.7822 7.61474C43.6887 7.6121 43.595 7.61273 43.5014 7.61653L43.4912 7.61695V7.61674H33.9504H33.7004V7.36674V5.55234V5.54585L33.7005 5.54585C33.7616 3.19562 31.9059 1.24083 29.5557 1.17971L47.7482 38.4475ZM47.7482 38.4475L47.7483 38.4539L47.7482 38.4475ZM18.5564 1.17822H18.5563C16.2053 1.17738 14.2987 3.08262 14.2979 5.43369L18.5564 1.17822ZM18.5564 1.17822H29.4435C29.4806 1.17822 29.5179 1.17875 29.5556 1.17971L18.5564 1.17822ZM14.2996 5.55223H14.2995V7.36674V7.61674H14.0495H4.50874H4.49851L4.49852 7.61653C2.24623 7.52437 0.34571 9.27529 0.2534 11.5274L14.2996 5.55223ZM14.2996 5.55223L14.2994 5.54513M14.2996 5.55223L14.2994 5.54513M14.2994 5.54513C14.2984 5.50854 14.2979 5.47143 14.2979 5.43377L14.2994 5.54513ZM0.251801 11.8153H0.251702V38.4475V38.454L0.251617 38.454C0.19056 40.8042 2.04627 42.759 4.39647 42.8201C4.39651 42.8201 4.39655 42.8201 4.39659 42.8201L4.3901 43.07L0.251801 11.8153ZM0.251801 11.8153L0.251602 11.8083M0.251801 11.8153L0.251602 11.8083M0.251602 11.8083C0.248966 11.7147 0.249595 11.6211 0.253397 11.5275L0.251602 11.8083ZM18.4227 3.02314L18.4229 3.02312C18.467 3.02078 18.5117 3.01952 18.5568 3.01963M18.4227 3.02314L31.6124 5.43213C31.6106 4.23604 30.6396 3.26784 29.4435 3.26963V3.01963H29.4433C29.4432 3.01963 29.4432 3.01963 29.4431 3.01963L18.5568 3.01963M18.4227 3.02314C17.0928 3.09512 16.0726 4.22977 16.1408 5.55894V7.36685V7.61685H16.3908H31.6093H31.8593V7.36685V5.55883L18.4227 3.02314ZM18.5568 3.01963H18.5564V3.26963L18.5571 3.01964C18.557 3.01964 18.5569 3.01963 18.5568 3.01963ZM43.625 40.9768L43.6248 40.9768C43.5806 40.9792 43.5358 40.9804 43.4906 40.9803M43.625 40.9768L4.50912 40.9803M43.625 40.9768C44.9549 40.9048 45.9752 39.7702 45.9071 38.441V30.7798V30.3181L45.5204 30.5705C44.9227 30.9606 44.2168 31.1514 43.5039 31.1155L43.5039 31.1152H43.4913H31.6093H31.3593V31.3652V34.7402L43.625 40.9768ZM43.4906 40.9803L43.4913 40.7303V40.9803H43.4906ZM43.4906 40.9803H4.50912M4.50912 40.9803L4.50874 40.7305V40.9803H4.50912ZM2.08987 38.5683C2.08987 38.5683 2.08986 38.5682 2.08986 38.5682L2.33986 38.5678L2.08987 38.5685C2.08987 38.5685 2.08987 38.5684 2.08987 38.5683ZM2.08987 38.5683C2.08975 38.5255 2.09088 38.4831 2.093 38.4411M2.08987 38.5683L2.093 38.4411M2.343 30.7798C2.42454 30.833 2.50794 30.8828 2.593 30.929V30.7798H2.343ZM2.343 30.7798L2.20638 30.9892C2.2514 31.0186 2.29695 31.047 2.343 31.0744V30.7798ZM2.093 38.4411V38.4476H2.343L2.09335 38.4343C2.09323 38.4366 2.09312 38.4389 2.093 38.4411ZM43.625 29.2703L43.6248 29.2703C43.5808 29.2727 43.5363 29.2739 43.4913 29.2738C43.4911 29.2738 43.4908 29.2738 43.4906 29.2738M43.625 29.2703L43.4913 29.0238L43.4906 29.2738M43.625 29.2703C44.9549 29.1983 45.9751 28.0637 45.9069 26.7344V11.8229M43.625 29.2703L45.9069 11.8229M43.4906 29.2738L31.6091 29.2738H31.3591V29.0238V26.507C31.3591 26.2983 31.2396 26.1192 31.0162 25.9803C30.7904 25.8399 30.4863 25.7619 30.2043 25.7619H17.7956C17.5137 25.7619 17.2096 25.8399 16.9837 25.9803C16.7603 26.1192 16.6408 26.2983 16.6408 26.507V29.0238V29.2738H16.3908L4.50912 29.2738M43.4906 29.2738H4.50912M4.50912 29.2738L4.50874 29.024V29.2738M4.50912 29.2738L2.08986 26.8617C2.08986 26.8617 2.08987 26.8618 2.08987 26.8618C2.09194 28.1958 3.1748 29.2756 4.50874 29.2738M4.50912 29.2738C4.50899 29.2738 4.50887 29.2738 4.50874 29.2738M4.50912 29.2738L4.50874 29.2738M4.18829 9.4545L4.18831 9.4545C4.29859 9.44756 4.40943 9.44873 4.51972 9.45815H43.4803C44.7077 9.35326 45.7905 10.2598 45.9018 11.488M4.18829 9.4545L45.9018 11.488M4.18829 9.4545C2.95626 9.53214 2.01978 10.5916 2.093 11.8229V26.7346L4.18829 9.4545ZM45.9018 11.488C45.9119 11.5994 45.9136 11.7114 45.9069 11.8229M45.9018 11.488L45.9069 11.8229M16.6408 34.7402C16.6398 34.7342 16.6388 34.7282 16.6379 34.7222L16.3908 34.7601H16.6408V34.7402ZM17.8041 35.7978H17.7956V36.0478L17.8119 35.7984C17.8093 35.7982 17.8067 35.798 17.8041 35.7978ZM30.1959 35.7978C30.1933 35.798 30.1907 35.7982 30.1881 35.7984L30.2045 36.0478V35.7978H30.1959ZM18.4821 33.7064V33.9564H18.7321H29.268H29.518V33.7064V27.8532V27.6032H29.268H18.7321H18.4821V27.8532V33.7064Z" fill="white" stroke="white" stroke-width="0.5"/>
</svg>
